<svg width="217" height="59" viewBox="0 0 217 59" fill="none" xmlns="http://www.w3.org/2000/svg">
<path d="M9.16483 0L2.7002 19.9394L10.7742 25.6949L17.7298 17.7846L9.16483 0Z" fill="#65AEBF"/>
<path d="M24.1673 20.1304L22.4762 13.1475L9.16504 0L17.73 17.7846L24.1673 20.1304Z" fill="#6F6BC5"/>
<path d="M19.2575 33.4416L24.1674 20.1305L17.73 17.7847L10.7744 25.695L19.2575 33.4416Z" fill="#3F6F93"/>
<path d="M2.7002 19.9395L9.32849 26.6496L19.2573 33.4415L10.7742 25.6949L2.7002 19.9395Z" fill="#0F3A44"/>
<path d="M62.6549 20.5667C63.8278 21.7396 64.4279 23.5126 64.4279 25.8584V35.078H60.6637V26.3494C60.6637 24.931 60.3636 23.8945 59.7363 23.1853C59.1089 22.4761 58.2088 22.1215 57.0631 22.1215C55.8084 22.1215 54.7719 22.5306 54.0354 23.3762C53.2716 24.2218 52.8898 25.3947 52.8898 26.9495V35.1053H49.1255V26.3767C49.1255 24.9583 48.8255 23.9218 48.1981 23.2126C47.5708 22.5034 46.6706 22.1488 45.525 22.1488C44.243 22.1488 43.2337 22.5579 42.47 23.3762C41.7062 24.1945 41.3516 25.3947 41.3516 26.9495V35.1053H37.5874V18.9846H41.1607V21.0304C41.7608 20.2939 42.5245 19.7484 43.4247 19.3665C44.3248 18.9846 45.3341 18.7937 46.4251 18.7937C47.6253 18.7937 48.6891 19.0119 49.6438 19.4756C50.5985 19.9393 51.3077 20.594 51.8532 21.4668C52.5079 20.6213 53.3807 19.9666 54.4173 19.5029C55.4538 19.0392 56.6267 18.7937 57.8814 18.7937C59.8727 18.7937 61.482 19.3938 62.6549 20.5667Z" fill="#1C0222"/>
<path d="M69.4197 15.6844C68.956 15.2479 68.7378 14.7297 68.7378 14.075C68.7378 13.4477 68.956 12.9021 69.4197 12.4657C69.8834 12.0293 70.4562 11.811 71.1382 11.811C71.8201 11.811 72.3929 12.0293 72.8566 12.4384C73.3203 12.8476 73.5385 13.3658 73.5385 13.9932C73.5385 14.6478 73.3203 15.2207 72.8566 15.6571C72.4202 16.1208 71.8201 16.339 71.1382 16.339C70.4562 16.339 69.8834 16.1208 69.4197 15.6844ZM69.2288 18.9849H72.993V35.051H69.2288V18.9849Z" fill="#1C0222"/>
<path d="M91.9232 20.5667C93.1507 21.7396 93.7508 23.5126 93.7508 25.8311V35.0507H89.9866V26.3221C89.9866 24.9037 89.6592 23.8672 89.0046 23.158C88.35 22.4488 87.3953 22.0942 86.1678 22.0942C84.7767 22.0942 83.6856 22.5034 82.8946 23.3489C82.1035 24.1945 81.6944 25.3674 81.6944 26.9495V35.078H77.9302V18.9846H81.5034V21.0577C82.1308 20.3212 82.8946 19.7484 83.8493 19.3665C84.804 18.9846 85.8678 18.7937 87.0407 18.7937C89.0864 18.7937 90.6958 19.3938 91.9232 20.5667Z" fill="#1C0222"/>
<path d="M108.207 34.178C107.771 34.5326 107.225 34.8053 106.598 34.9963C105.971 35.1872 105.289 35.269 104.607 35.269C102.834 35.269 101.47 34.8053 100.515 33.8779C99.5607 32.9505 99.0697 31.6139 99.0697 29.8409V22.0943H96.4238V19.0938H99.0697V15.4387H102.834V19.0938H107.144V22.0943H102.834V29.7318C102.834 30.5229 103.025 31.123 103.407 31.5321C103.789 31.9413 104.334 32.1595 105.071 32.1595C105.916 32.1595 106.625 31.9413 107.171 31.5048L108.207 34.178Z" fill="#1C0222"/>
<path d="M125.801 28.2044H113.199C113.417 29.3773 113.99 30.332 114.918 31.0139C115.845 31.6958 117.018 32.0504 118.382 32.0504C120.155 32.0504 121.601 31.4776 122.746 30.3047L124.765 32.6232C124.055 33.4961 123.128 34.1507 122.037 34.5872C120.946 35.0236 119.691 35.2418 118.3 35.2418C116.527 35.2418 114.972 34.8872 113.636 34.178C112.299 33.4688 111.263 32.4868 110.526 31.2321C109.79 29.9774 109.435 28.559 109.435 26.9769C109.435 25.4221 109.79 24.0037 110.499 22.749C111.208 21.4942 112.19 20.5123 113.472 19.8031C114.727 19.0939 116.172 18.7393 117.755 18.7393C119.309 18.7393 120.728 19.0939 121.955 19.7758C123.183 20.4577 124.137 21.4397 124.847 22.6944C125.556 23.9492 125.883 25.3948 125.883 27.0314C125.856 27.3588 125.828 27.7406 125.801 28.2044ZM114.672 22.8581C113.854 23.5673 113.336 24.522 113.145 25.6949H122.255C122.092 24.522 121.601 23.5946 120.782 22.8581C119.964 22.1216 118.927 21.767 117.727 21.767C116.527 21.7943 115.518 22.1489 114.672 22.8581Z" fill="#1C0222"/>
<path d="M145.195 12.7109V35.0235H141.594V32.9504C140.967 33.7142 140.203 34.287 139.303 34.6689C138.376 35.0507 137.394 35.2417 136.275 35.2417C134.721 35.2417 133.33 34.9144 132.102 34.2052C130.875 33.496 129.893 32.5413 129.211 31.3138C128.529 30.0863 128.147 28.6134 128.147 27.004C128.147 25.3947 128.502 23.949 129.211 22.6943C129.92 21.4396 130.875 20.4849 132.102 19.8029C133.33 19.121 134.721 18.7664 136.275 18.7664C137.339 18.7664 138.321 18.9574 139.194 19.312C140.067 19.6666 140.831 20.2121 141.458 20.9486V12.7109H145.195ZM139.14 31.4229C139.849 31.0138 140.422 30.4137 140.858 29.6772C141.267 28.9134 141.485 28.0406 141.485 27.0313C141.485 26.0221 141.267 25.1492 140.858 24.3855C140.449 23.6217 139.876 23.0489 139.14 22.6397C138.43 22.2306 137.612 22.0124 136.712 22.0124C135.812 22.0124 134.993 22.2306 134.284 22.6397C133.575 23.0489 133.002 23.649 132.566 24.3855C132.157 25.1492 131.938 26.0221 131.938 27.0313C131.938 28.0406 132.157 28.9134 132.566 29.6772C132.975 30.4409 133.548 31.0138 134.284 31.4229C134.993 31.8321 135.812 32.0503 136.712 32.0503C137.612 32.023 138.43 31.8321 139.14 31.4229Z" fill="#1C0222"/>
<path d="M166.062 18.9846V32.6231C166.062 38.2694 163.171 41.1062 157.388 41.1062C155.833 41.1062 154.388 40.9153 152.997 40.5334C151.605 40.1515 150.46 39.5787 149.56 38.8422L151.251 36.0054C151.96 36.5783 152.833 37.042 153.924 37.3966C154.988 37.7512 156.079 37.9148 157.197 37.9148C158.97 37.9148 160.252 37.5057 161.071 36.7146C161.889 35.9236 162.298 34.6961 162.298 33.0595V32.1867C161.671 32.8959 160.88 33.4141 159.952 33.7687C159.025 34.1233 158.015 34.3143 156.924 34.3143C155.397 34.3143 154.033 33.9869 152.778 33.3323C151.551 32.6777 150.569 31.7502 149.86 30.5773C149.151 29.4044 148.796 28.0406 148.796 26.5131C148.796 24.9856 149.151 23.649 149.86 22.4761C150.569 21.3032 151.551 20.403 152.778 19.7484C154.006 19.0937 155.397 18.7937 156.924 18.7937C158.097 18.7937 159.134 18.9846 160.089 19.3665C161.043 19.7484 161.834 20.3212 162.489 21.1122V18.9846H166.062ZM161.016 29.8409C161.916 28.9953 162.38 27.8769 162.38 26.5131C162.38 25.1765 161.916 24.0854 161.016 23.2398C160.116 22.3943 158.943 21.9851 157.525 21.9851C156.079 21.9851 154.906 22.3943 153.979 23.2398C153.078 24.0854 152.615 25.1765 152.615 26.5131C152.615 27.8769 153.078 28.9953 153.979 29.8409C154.879 30.6864 156.079 31.1229 157.525 31.1229C158.916 31.1229 160.089 30.7137 161.016 29.8409Z" fill="#1C0222"/>
<path d="M186.056 28.2044H173.454C173.672 29.3773 174.245 30.332 175.173 31.0139C176.1 31.6958 177.273 32.0504 178.637 32.0504C180.41 32.0504 181.855 31.4776 183.001 30.3047L185.02 32.6232C184.283 33.4961 183.383 34.1507 182.292 34.5872C181.201 35.0236 179.946 35.2418 178.555 35.2418C176.782 35.2418 175.227 34.8872 173.891 34.178C172.554 33.4688 171.517 32.4868 170.781 31.2321C170.045 29.9774 169.69 28.559 169.69 26.9769C169.69 25.4221 170.045 24.0037 170.754 22.749C171.463 21.4942 172.445 20.5123 173.727 19.8031C175.009 19.0939 176.4 18.7393 178.009 18.7393C179.564 18.7393 180.983 19.0939 182.21 19.7758C183.438 20.4577 184.392 21.4397 185.101 22.6944C185.783 23.9492 186.138 25.3948 186.138 27.0314C186.111 27.3588 186.083 27.7406 186.056 28.2044ZM174.927 22.8581C174.109 23.5673 173.591 24.522 173.4 25.6949H182.51C182.346 24.522 181.855 23.5946 181.037 22.8581C180.219 22.1216 179.182 21.767 177.982 21.767C176.782 21.7943 175.773 22.1489 174.927 22.8581Z" fill="#1C0222"/>
<path d="M214.806 20.5667C215.979 21.7396 216.579 23.5126 216.579 25.8584V35.078H212.815V26.3494C212.815 24.931 212.515 23.8945 211.887 23.1853C211.26 22.4761 210.387 22.1215 209.214 22.1215C207.959 22.1215 206.95 22.5306 206.186 23.3762C205.423 24.2218 205.041 25.3947 205.041 26.9495V35.1053H201.276V26.3767C201.276 24.9583 200.976 23.9218 200.349 23.2126C199.722 22.5034 198.849 22.1488 197.676 22.1488C196.394 22.1488 195.385 22.5579 194.621 23.3762C193.857 24.1945 193.503 25.3947 193.503 26.9495V35.1053H189.738V18.9846H193.312V21.0304C193.912 20.2939 194.675 19.7484 195.576 19.3665C196.476 18.9846 197.485 18.7937 198.576 18.7937C199.776 18.7937 200.84 19.0119 201.795 19.4756C202.749 19.9393 203.459 20.594 204.004 21.4668C204.659 20.6213 205.504 19.9666 206.568 19.5029C207.605 19.0392 208.75 18.7937 210.032 18.7937C212.024 18.7937 213.633 19.3938 214.806 20.5667Z" fill="#1C0222"/>
<path d="M41.57 47.0527V56.3814H39.8243V48.4984H37.8604V47.0527H41.57Z" fill="#6F6BC5"/>
<path d="M45.3068 55.9724C44.734 55.5905 44.243 55.045 43.9157 54.3085C43.5884 53.572 43.3975 52.7264 43.3975 51.7172C43.3975 50.7079 43.5611 49.8623 43.9157 49.1259C44.2703 48.3894 44.7068 47.8439 45.3068 47.462C45.8797 47.0801 46.5616 46.8892 47.2981 46.8892C48.0345 46.8892 48.7165 47.0801 49.3166 47.462C49.9166 47.8439 50.3803 48.3894 50.7077 49.1259C51.035 49.8623 51.2259 50.7079 51.2259 51.7172C51.2259 52.7264 51.0623 53.572 50.7077 54.3085C50.3531 55.045 49.9166 55.5905 49.3166 55.9724C48.7165 56.3543 48.0618 56.5452 47.2981 56.5452C46.5343 56.5452 45.9069 56.3543 45.3068 55.9724ZM48.9074 54.1994C49.2893 53.6538 49.4802 52.8355 49.4802 51.7172C49.4802 50.6261 49.2893 49.8078 48.9074 49.235C48.5255 48.6622 47.98 48.4167 47.3253 48.4167C46.6707 48.4167 46.1524 48.6894 45.7433 49.235C45.3341 49.7805 45.1705 50.5988 45.1705 51.7172C45.1705 52.8083 45.3614 53.6266 45.7433 54.1994C46.1252 54.7722 46.6434 55.0177 47.3253 55.0177C47.98 55.0177 48.5255 54.7449 48.9074 54.1994Z" fill="#6F6BC5"/>
<path d="M54.3083 55.9724C53.7355 55.5905 53.2445 55.045 52.9172 54.3085C52.5899 53.572 52.3989 52.7264 52.3989 51.7172C52.3989 50.7079 52.5626 49.8623 52.9172 49.1259C53.2718 48.3894 53.7082 47.8439 54.3083 47.462C54.8811 47.0801 55.563 46.8892 56.2995 46.8892C57.036 46.8892 57.7179 47.0801 58.318 47.462C58.9181 47.8439 59.3818 48.3894 59.7091 49.1259C60.0365 49.8623 60.2274 50.7079 60.2274 51.7172C60.2274 52.7264 60.0637 53.572 59.7091 54.3085C59.3545 55.045 58.9181 55.5905 58.318 55.9724C57.7179 56.3543 57.0633 56.5452 56.2995 56.5452C55.5358 56.5452 54.8811 56.3543 54.3083 55.9724ZM57.8816 54.1994C58.2635 53.6538 58.4544 52.8355 58.4544 51.7172C58.4544 50.6261 58.2635 49.8078 57.8816 49.235C57.4997 48.6622 56.9542 48.4167 56.2995 48.4167C55.6449 48.4167 55.1266 48.6894 54.7175 49.235C54.3083 49.7805 54.1446 50.5988 54.1446 51.7172C54.1446 52.8083 54.3356 53.6266 54.7175 54.1994C55.0993 54.7722 55.6176 55.0177 56.2995 55.0177C56.9814 55.0177 57.4997 54.7449 57.8816 54.1994Z" fill="#6F6BC5"/>
<path d="M64.5373 47.0527V56.3814H62.7916V48.4984H60.8276V47.0527H64.5373Z" fill="#6F6BC5"/>
<path d="M71.5747 56.2177C70.8927 55.9995 70.3745 55.754 69.9653 55.3994L70.5654 54.0628C70.9473 54.3629 71.411 54.6084 71.9838 54.7993C72.5294 54.9902 73.1022 55.0993 73.6477 55.0993C74.3296 55.0993 74.8479 54.9902 75.2025 54.772C75.5571 54.5538 75.7208 54.2538 75.7208 53.8992C75.7208 53.6264 75.6117 53.4082 75.448 53.2445C75.2571 53.0809 75.0116 52.9445 74.7115 52.8354C74.4115 52.7263 74.0296 52.6171 73.5113 52.508C72.8021 52.3444 72.2293 52.1807 71.7929 51.9898C71.3565 51.7988 70.9746 51.5533 70.6473 51.1987C70.3199 50.8441 70.1835 50.3532 70.1835 49.7258C70.1835 49.2075 70.3199 48.7438 70.5927 48.3074C70.8655 47.871 71.3019 47.5436 71.8474 47.2981C72.4203 47.0526 73.1022 46.9163 73.9205 46.9163C74.4933 46.9163 75.0388 46.9981 75.6117 47.1345C76.1572 47.2709 76.6482 47.4891 77.0301 47.7346L76.4845 49.0711C76.0754 48.8256 75.6389 48.6347 75.2025 48.5256C74.7661 48.3892 74.3296 48.3347 73.8932 48.3347C73.2113 48.3347 72.693 48.4438 72.3657 48.6893C72.0384 48.9348 71.8747 49.2348 71.8747 49.6167C71.8747 49.8894 71.9838 50.1077 72.1475 50.2713C72.3384 50.435 72.5839 50.5714 72.884 50.6805C73.184 50.7896 73.5659 50.8987 74.0842 51.0078C74.7661 51.1715 75.3389 51.3351 75.8026 51.4988C76.2663 51.6625 76.6209 51.9352 76.9482 52.2898C77.2756 52.6444 77.4119 53.1354 77.4119 53.7355C77.4119 54.2538 77.2755 54.7175 77.0028 55.1266C76.73 55.5358 76.2936 55.8904 75.7208 56.1359C75.148 56.3814 74.466 56.5177 73.6477 56.5177C72.9385 56.545 72.2293 56.4359 71.5747 56.2177Z" fill="#6F6BC5"/>
<path d="M85.9498 49.2621V58.9727H84.2859V55.5085C83.713 56.1632 82.9766 56.4632 81.9946 56.4632C81.3127 56.4632 80.6853 56.2996 80.1398 55.9995C79.5942 55.6995 79.1578 55.263 78.8578 54.7175C78.5577 54.172 78.394 53.5173 78.394 52.7808C78.394 52.0716 78.5577 51.417 78.8578 50.8715C79.1578 50.3259 79.5942 49.8895 80.1398 49.5894C80.6853 49.2894 81.3127 49.1257 81.9946 49.1257C82.4856 49.1257 82.922 49.2076 83.3312 49.3712C83.7403 49.5349 84.0676 49.8077 84.3404 50.135V49.2076L85.9498 49.2621ZM83.713 54.4447C84.1222 54.0356 84.3131 53.49 84.3131 52.8354C84.3131 52.1807 84.1222 51.6352 83.713 51.2261C83.3039 50.8169 82.8129 50.626 82.1855 50.626C81.5582 50.626 81.0672 50.8442 80.6853 51.2261C80.2761 51.6352 80.0852 52.1807 80.0852 52.8354C80.0852 53.49 80.2761 54.0356 80.6853 54.4447C81.0945 54.8539 81.5854 55.0448 82.1855 55.0448C82.8129 55.0721 83.3312 54.8539 83.713 54.4447Z" fill="#6F6BC5"/>
<path d="M95.0601 49.2622V56.3815H93.478V55.4813C93.2053 55.8087 92.878 56.0542 92.4688 56.2178C92.0596 56.3815 91.6505 56.4633 91.1595 56.4633C90.2048 56.4633 89.4683 56.1905 88.9228 55.6723C88.3773 55.154 88.1045 54.363 88.1045 53.3265V49.2622H89.7684V53.1083C89.7684 53.7629 89.9048 54.2266 90.2048 54.5539C90.5049 54.8813 90.914 55.0176 91.4323 55.0176C92.0324 55.0176 92.4961 54.8267 92.8507 54.4721C93.2053 54.0902 93.3689 53.572 93.3689 52.8628V49.2622H95.0601Z" fill="#6F6BC5"/>
<path d="M102.371 49.944C102.916 50.435 103.216 51.1987 103.216 52.208V56.3814H101.634V55.5085C101.416 55.8085 101.143 56.054 100.761 56.2177C100.379 56.3814 99.9156 56.4632 99.3973 56.4632C98.8791 56.4632 98.3881 56.3814 98.0062 56.1904C97.6243 55.9995 97.297 55.754 97.0788 55.4267C96.8606 55.0993 96.7515 54.7447 96.7515 54.3356C96.7515 53.6809 96.997 53.19 97.4607 52.8081C97.9244 52.4262 98.6881 52.2353 99.6974 52.2353H101.552V52.1262C101.552 51.6352 101.416 51.2533 101.116 50.9805C100.816 50.7078 100.379 50.5714 99.7792 50.5714C99.37 50.5714 98.9882 50.6259 98.6063 50.7623C98.2244 50.8987 97.8971 51.0624 97.6243 51.2806L96.9697 50.0804C97.3516 49.8076 97.788 49.5894 98.3062 49.4257C98.8245 49.2621 99.3973 49.2075 99.9701 49.2075C101.007 49.2075 101.825 49.453 102.371 49.944ZM100.843 54.9902C101.17 54.7993 101.389 54.5265 101.525 54.1719V53.3536H99.8065C98.8518 53.3536 98.3608 53.6809 98.3608 54.3083C98.3608 54.6084 98.4699 54.8538 98.7154 55.0175C98.9609 55.1812 99.2882 55.2903 99.7246 55.2903C100.161 55.2903 100.516 55.1812 100.843 54.9902Z" fill="#6F6BC5"/>
<path d="M109.463 49.2075V50.7896C109.326 50.7623 109.19 50.7623 109.081 50.7623C108.426 50.7623 107.935 50.9532 107.553 51.3351C107.171 51.717 107.008 52.2625 107.008 52.9717V56.4359H105.344V49.3166H106.926V50.3532C107.417 49.5621 108.262 49.2075 109.463 49.2075Z" fill="#6F6BC5"/>
<path d="M117.482 53.381H111.89C111.999 53.8992 112.244 54.3084 112.654 54.6357C113.063 54.9357 113.581 55.0994 114.181 55.0994C114.972 55.0994 115.6 54.8539 116.118 54.3357L117.018 55.3722C116.691 55.7541 116.281 56.0541 115.79 56.245C115.299 56.436 114.754 56.5451 114.127 56.5451C113.336 56.5451 112.654 56.3814 112.053 56.0814C111.453 55.7813 110.99 55.3449 110.662 54.7721C110.335 54.2265 110.171 53.5719 110.171 52.89C110.171 52.208 110.335 51.5807 110.635 51.0079C110.962 50.4623 111.399 50.0259 111.944 49.6986C112.517 49.3985 113.145 49.2349 113.854 49.2349C114.536 49.2349 115.163 49.3985 115.709 49.6986C116.254 49.9986 116.691 50.435 116.991 51.0079C117.291 51.5534 117.454 52.2081 117.454 52.9445C117.509 52.9991 117.509 53.1627 117.482 53.381ZM112.544 51.0079C112.163 51.3352 111.944 51.7443 111.863 52.2626H115.927C115.845 51.7443 115.627 51.3352 115.272 51.0079C114.918 50.6805 114.454 50.5169 113.908 50.5169C113.363 50.5169 112.926 50.6805 112.544 51.0079Z" fill="#6F6BC5"/>
<path d="M119.61 56.2724C119.064 56.1087 118.628 55.9178 118.273 55.6996L118.928 54.4448C119.255 54.663 119.637 54.8267 120.073 54.9631C120.51 55.0995 120.973 55.154 121.41 55.154C122.392 55.154 122.91 54.8813 122.91 54.363C122.91 54.1175 122.774 53.9266 122.528 53.8447C122.283 53.7356 121.873 53.6538 121.301 53.572C120.728 53.4901 120.237 53.381 119.855 53.2719C119.473 53.1628 119.173 52.9446 118.9 52.6718C118.628 52.3718 118.491 51.9899 118.491 51.4716C118.491 50.7897 118.764 50.2442 119.337 49.8623C119.91 49.4531 120.673 49.2622 121.628 49.2622C122.119 49.2622 122.61 49.3168 123.101 49.4259C123.592 49.535 124.001 49.6714 124.301 49.8623L123.646 51.117C123.046 50.7624 122.364 50.5715 121.601 50.5715C121.11 50.5715 120.728 50.6533 120.482 50.7897C120.237 50.9261 120.1 51.117 120.1 51.3625C120.1 51.6353 120.237 51.8262 120.51 51.9353C120.782 52.0445 121.192 52.1536 121.764 52.2354C122.337 52.3172 122.801 52.4263 123.155 52.5354C123.51 52.6445 123.837 52.8355 124.11 53.1083C124.383 53.381 124.492 53.7629 124.492 54.2812C124.492 54.9358 124.192 55.4813 123.619 55.8905C123.046 56.2997 122.255 56.4906 121.246 56.4906C120.728 56.4906 120.182 56.4088 119.61 56.2724Z" fill="#6F6BC5"/>
<path d="M130.929 56.0269C130.356 55.7269 129.893 55.2905 129.565 54.7176C129.238 54.1721 129.074 53.5175 129.074 52.8355C129.074 52.1263 129.238 51.499 129.565 50.9534C129.893 50.4079 130.356 49.9715 130.929 49.6441C131.502 49.3441 132.157 49.1804 132.866 49.1804C133.602 49.1804 134.257 49.3441 134.83 49.6441C135.402 49.9442 135.866 50.3806 136.193 50.9534C136.521 51.499 136.684 52.1263 136.684 52.8355C136.684 53.5447 136.521 54.1721 136.193 54.7176C135.866 55.2632 135.402 55.6996 134.83 56.0269C134.257 56.3543 133.602 56.4906 132.866 56.4906C132.157 56.4906 131.502 56.3543 130.929 56.0269ZM134.393 54.4449C134.802 54.0357 134.993 53.4902 134.993 52.8355C134.993 52.1809 134.802 51.6353 134.393 51.2262C133.984 50.817 133.493 50.6261 132.866 50.6261C132.238 50.6261 131.747 50.8443 131.365 51.2262C130.956 51.6353 130.765 52.1809 130.765 52.8355C130.765 53.4902 130.956 54.0357 131.365 54.4449C131.775 54.854 132.266 55.045 132.866 55.045C133.466 55.045 133.984 54.854 134.393 54.4449Z" fill="#6F6BC5"/>
<path d="M140.122 48.9075V49.3439H142.086V50.6805H140.176V56.4087H138.512V50.6805H137.339V49.3439H138.512V48.8802C138.512 48.1165 138.73 47.5164 139.194 47.0799C139.631 46.6435 140.258 46.4253 141.076 46.4253C141.704 46.4253 142.222 46.5617 142.577 46.8072L142.113 48.0619C141.84 47.871 141.513 47.7619 141.185 47.7619C140.476 47.7619 140.122 48.1437 140.122 48.9075Z" fill="#6F6BC5"/>
<path d="M155.342 47.0527V56.3814H153.924L148.768 50.0532V56.3814H147.05V47.0527H148.468L153.624 53.381V47.0527H155.342Z" fill="#6F6BC5"/>
<path d="M159.597 48.5258V51.3626H164.098V52.8355H159.597V56.4088H157.852V47.0801H164.671V48.5258H159.597Z" fill="#6F6BC5"/>
<path d="M168.326 48.5257H165.244V47.0527H173.181V48.5257H170.099V56.4087H168.353L168.326 48.5257Z" fill="#6F6BC5"/>
<path d="M23.84 18.7666L24.1674 20.1304L19.2575 33.4416L9.32871 26.6496L2.70042 19.9395L3.08229 18.7666H0V35.0509H26.8678V18.7666H23.84Z" fill="#1C0222"/>
</svg>
