<svg width="24" height="24" viewBox="0 0 24 24" fill="none" xmlns="http://www.w3.org/2000/svg">
<g clip-path="url(#clip0_645_10683)">
<path d="M7.34067 18.0422L5.89223 16.5938C5.4938 16.1953 5.35317 15.6188 5.5313 15.0844C5.67192 14.6672 5.85942 14.1235 6.08442 13.5H1.12505C0.72192 13.5 0.34692 13.2844 0.145358 12.9328C-0.0562045 12.5813 -0.051517 12.15 0.154733 11.8031L2.61567 7.6547C3.22505 6.62814 4.32661 6.00001 5.51723 6.00001H9.37505C9.48755 5.81251 9.60005 5.63908 9.71255 5.47033C13.5516 -0.192173 19.2704 -0.379673 22.6829 0.248452C23.2266 0.34689 23.6485 0.773452 23.7516 1.3172C24.3797 4.73439 24.1875 10.4485 18.5297 14.2875C18.3657 14.4 18.1875 14.5125 18 14.625V18.4828C18 19.6735 17.3719 20.7797 16.3454 21.3844L12.1969 23.8453C11.85 24.0516 11.4188 24.0563 11.0672 23.8547C10.7157 23.6531 10.5 23.2828 10.5 22.875V17.85C9.83911 18.0797 9.26255 18.2672 8.82661 18.4078C8.30161 18.5766 7.72973 18.4313 7.33598 18.0422H7.34067ZM18 7.87501C19.036 7.87501 19.875 7.03595 19.875 6.00001C19.875 4.96408 19.036 4.12501 18 4.12501C16.9641 4.12501 16.125 4.96408 16.125 6.00001C16.125 7.03595 16.9641 7.87501 18 7.87501Z" fill="white"/>
</g>
<defs>
<clipPath id="clip0_645_10683">
<rect width="24" height="24" fill="white"/>
</clipPath>
</defs>
</svg>
