<svg width="174" height="32" viewBox="0 0 174 32" fill="none" xmlns="http://www.w3.org/2000/svg">
<path d="M18.0479 13.7302L16.7531 14.4021L16.5344 14.3229L8.60625 18.8771L9.32188 18.0667L16.1083 14.1688L16.1292 14.176L17.9313 13.2417L17.9052 13.1344L15.9927 14.126L15.6823 14.0135L10.0385 17.2563L10.7542 16.4458L15.2562 13.8594L15.3688 13.9L17.7885 12.6458L17.7625 12.5385L15.2323 13.85L14.8302 13.7042L11.4698 15.6344L12.1854 14.824L14.4042 13.55L13.9781 13.3958L12.901 14.0146L13.5688 13.2583L13.401 12.9094L17.3573 10.8583L17.3312 10.751L13.3542 12.8135L13.374 12.8542L13.1427 12.3729L17.2135 10.2625L17.1875 10.1552L13.0927 12.275L13.1312 12.3552L12.3635 10.7615L16.1125 8.81771L16.0323 8.73854L12.3167 10.6646L12.3573 10.749L12.1042 10.224L15.6667 8.37708L15.5865 8.29792L12.0583 10.1271L12.0896 10.1917L11.8458 9.68646L15.2208 7.93646L15.1406 7.85729L11.799 9.58958L11.8344 9.6625L11.5875 9.14896L14.776 7.49583L14.6958 7.41667L11.5417 9.05208L11.5646 9.1L11.3292 8.61146L14.3302 7.05521L14.25 6.97604L11.2823 8.51458L11.0698 8.07396L13.8844 6.61458L13.8042 6.53542L11.024 7.97708L11.0531 8.03854L10.8115 7.5375L13.4385 6.175L13.3583 6.09583L10.7646 7.44063L10.7865 7.48542L10.5531 7L12.9927 5.73438L12.9125 5.65521L10.5062 6.90313L10.0354 5.92604L12.1031 4.86042L12.0229 4.78125L9.99063 5.83542L10.0281 5.9125L9.77917 5.39479L11.6583 4.42083L11.5781 4.34167L9.73229 5.29896L9.775 5.3875L9.26146 4.32188L10.7667 3.54167L10.6865 3.4625L9.21458 4.225L9.24479 4.28854L9.00208 3.78438L10.3198 3.10104L10.2396 3.02188L8.95521 3.6875L8.98646 3.75312L8.74271 3.24792L9.87396 2.66146L9.79375 2.58229L8.69583 3.15104L8.43958 2.61771L8.48437 2.71042L9.42813 2.22083L9.34792 2.14167L8.4375 2.61354L8.225 2.17292L8.98229 1.78021L8.90208 1.70104L8.17813 2.07604L8.22396 2.17188L7.17813 0L2.85729 13.3625H0V26.3656H21.5677V13.3635H17.9562L18.0479 13.7302ZM2.65937 15.1344L2.73333 15.1031L2.63854 15.0354L2.58437 15.0583L2.50937 14.9823L2.54375 14.9677L2.44896 14.9L2.43437 14.9063L2.37917 14.85L2.91354 15.2302L2.82813 15.1698L2.73438 15.2094L2.65937 15.1344ZM3.10938 15.5896L3.30208 15.5073L3.20729 15.4396L3.03438 15.5135L2.95938 15.4375L3.1125 15.3719L3.01771 15.3042L2.88438 15.3615L2.80938 15.2854L2.92292 15.2375L3.39792 15.575L3.18542 15.6656L3.10938 15.5896ZM3.26042 15.7417L3.49375 15.6427L3.58854 15.7104L3.33542 15.8177L3.35729 15.8396L3.26042 15.7417ZM3.41042 15.8927L3.68333 15.7771L3.85938 15.9021L3.77813 15.8448L3.48542 15.9688L3.41042 15.8927ZM3.56042 16.0448L3.87292 15.9125L3.96771 15.9802L3.63542 16.1219L3.68333 16.1698L3.56042 16.0448ZM3.86042 16.3479L4.25208 16.1812L4.15729 16.1135L3.78542 16.2719L3.71042 16.1958L4.0625 16.0458L4.04063 16.0302L4.34687 16.2479L3.93542 16.4229L3.94271 16.4312L3.86042 16.3479ZM4.16146 16.651L4.63229 16.451L4.5375 16.3833L4.08646 16.575L4.01146 16.499L4.44271 16.3156L4.72708 16.5177L4.23646 16.726L4.16146 16.651ZM4.46146 16.9552L5.01146 16.7208L4.91667 16.6531L4.38646 16.8792L4.29583 16.7885L4.31042 16.8042L4.82083 16.5875L5.10521 16.7896L4.53542 17.0323L4.46146 16.9552ZM4.61146 17.1063L5.20104 16.8552L5.29583 16.9229L4.68646 17.1823L4.61146 17.1063ZM5.39167 16.9906L5.48646 17.0583L4.83646 17.3344L4.76146 17.2583L5.39167 16.9906ZM4.91146 17.4104L5.58125 17.126L5.67604 17.1938L4.98646 17.4865L4.91146 17.4104ZM5.06146 17.5615L5.77083 17.2604L5.86562 17.3281L5.13646 17.6375L5.18125 17.6833L5.06146 17.5615ZM5.2125 17.7135L5.96146 17.3948L6.05625 17.4625L5.2875 17.7896L5.2125 17.7135ZM5.3625 17.8646L6.15104 17.5292L6.24583 17.5969L5.4375 17.9406L5.44271 17.9458L5.3625 17.8646ZM5.5125 18.0167L6.34062 17.6646L6.43542 17.7323L5.5875 18.0927L5.5125 18.0167ZM5.6625 18.1688L6.53021 17.8L6.625 17.8677L5.7375 18.2448L5.76875 18.276L5.6625 18.1688ZM5.8125 18.3198L6.71979 17.9344L6.81458 18.0021L5.8875 18.3969L5.8125 18.3198ZM5.9625 18.4719L6.90938 18.0688L7.00417 18.1365L6.0375 18.5479L5.9625 18.4719ZM6.11354 18.6229L7.1 18.2031L7.19479 18.2708L6.18854 18.699L6.20833 18.7188L6.11354 18.6229ZM6.26354 18.775L7.29063 18.3385L7.38542 18.4063L6.33854 18.851L6.41354 18.9271L7.48021 18.474L7.575 18.5417L6.48854 19.0031L6.26354 18.775ZM6.56354 19.0781L7.66979 18.6083L7.76458 18.676L6.63854 19.1552L6.56354 19.0781ZM6.71354 19.2302L7.85937 18.7427L7.95417 18.8104L6.78854 19.3062L6.71354 19.2302ZM6.86354 19.3813L8.04896 18.8771L8.14375 18.9448L6.93854 19.4573L6.86354 19.3813ZM7.01458 19.5333L8.23958 19.0125L8.33438 19.0802L7.08958 19.6094L7.01458 19.5333ZM7.17083 19.6917L8.43021 19.1562L8.39167 19.1208L8.51146 19.2302L7.24688 19.7677L7.17083 19.6917ZM7.7125 20.1073L8.9125 19.5969L8.99271 19.6708L7.80937 20.174L7.7125 20.1073ZM8.29479 20.5063L9.39479 20.0385L9.39271 20.0365L9.475 20.1115L8.39167 20.5719L8.41146 20.5854L8.29479 20.5063ZM11.0135 22.3677L11.6469 22.099L11.774 22.2156L11.7271 22.1729L11.1104 22.4344L11.2073 22.501L11.8073 22.2458L11.7979 22.2375L16.7177 19.4115L16.5312 19.9177L12.0656 22.4833L12.0479 22.4667L11.4979 22.7L11.5948 22.7667L12.1281 22.5406L12.2083 22.6146L11.6917 22.8344L11.0135 22.3677ZM12.9563 23.6969L13.2563 23.5698L13.3365 23.6438L13.0531 23.7635L12.9563 23.6969ZM14.701 24.8917L14.6917 24.8854L14.6927 24.8844L14.6125 24.8104L14.5948 24.8177L14.4979 24.751L14.5323 24.7365L14.4812 24.6906L14.8521 24.4771L14.701 24.8917ZM15.0396 23.9719L14.2135 24.4469L14.4521 24.6646L14.401 24.6865L14.3042 24.6198L14.3719 24.5906L14.2917 24.5167L14.2073 24.5531L14.0208 24.425L14.1104 24.4865L14.2125 24.4438L14.1323 24.3698L14.0135 24.4198L13.9167 24.3531L14.051 24.2958L13.9708 24.2219L13.8188 24.2865L13.8406 24.3021L13.7208 24.2198L13.8896 24.1479L13.9458 24.199L15.2271 23.4635L15.0396 23.9719ZM15.3417 23.151L15.4125 22.9583L13.6771 23.9552L13.8083 24.076L13.6229 24.1552L13.526 24.0885L13.7281 24.0031L13.6479 23.9292L13.4302 24.0219L13.3333 23.9552L13.5688 23.8552L13.4979 23.7906L13.2479 23.8969L13.151 23.8302L13.4177 23.7167L13.4104 23.7094L15.601 22.451L15.3417 23.151ZM15.7865 21.9448L13.1406 23.4646L13.175 23.4958L12.8583 23.6302L12.8854 23.6479L12.6927 23.5156L12.7615 23.5625L13.0948 23.4208L13.0146 23.3469L12.6646 23.4958L12.5677 23.4292L12.9344 23.2729L12.8729 23.2167L15.9729 21.4354L15.7865 21.9448ZM12.6042 22.974L12.8719 23.2188L12.8542 23.2021L12.4708 23.3646L12.4896 23.3771L12.374 23.2979L12.774 23.1281L12.6937 23.0542L12.2771 23.2313L12.1802 23.1646L12.6135 22.9802L12.5333 22.9062L12.0833 23.0979L11.9865 23.0313L12.4531 22.8333L12.3729 22.7594L11.8896 22.9646L11.974 23.0229L11.7917 22.899L12.2917 22.6865L12.3365 22.7281L16.3469 20.424L16.4438 20.1594L16.1469 20.9656L16.1594 20.9302L12.6042 22.974ZM16.9052 18.9042L11.5302 21.9917L11.625 22.0781L11.5667 22.025L10.9167 22.301L10.8198 22.2344L11.4865 21.951L11.4062 21.8771L10.7229 22.1677L10.626 22.101L11.326 21.8031L11.2458 21.7292L10.5292 22.0333L10.4323 21.9667L11.1656 21.6552L11.0854 21.5813L10.3354 21.9L10.2385 21.8333L11.0052 21.5073L11.2635 21.7437L17.0938 18.3948L17.2802 17.8885L10.9958 21.499L10.925 21.4344L10.1417 21.7677L10.0448 21.701L10.8448 21.3615L10.7646 21.2875L9.94792 21.6344L9.83438 21.5563L9.85104 21.5677L10.6844 21.2135L10.6042 21.1396L9.75417 21.501L9.65729 21.4344L10.524 21.0656L10.7281 21.2521L17.4677 17.3802L16.9052 18.9042ZM17.4958 17.301L17.6521 16.8771L10.4573 21.0104L10.4406 20.9958L9.55729 21.3708L9.44583 21.2948L9.46042 21.3042L10.3604 20.9219L10.2802 20.8479L9.36354 21.2375L9.26667 21.1708L10.2 20.774L10.1198 20.7L9.16979 21.1042L9.07292 21.0375L10.0396 20.6271L9.95937 20.5531L8.97604 20.9708L9.01667 20.9979L8.87917 20.9042L9.87917 20.4792L9.79896 20.4052L8.78229 20.8375L8.49063 20.6385L9.55729 20.1854L9.65312 20.2729L18.2125 15.3563L18.2302 15.3094L17.4958 17.301ZM18.3354 14.9219L18.275 14.9531L18.2396 14.9406L9.38333 20.0281L9.31458 19.9646L8.19792 20.4396L8.10104 20.3729L9.23438 19.8917L9.15417 19.8177L8.00417 20.3063L7.90729 20.2396L9.07396 19.7438L9.11563 19.7823L17.8135 14.7854L17.651 14.726L18.2177 14.4323L18.1917 14.325L17.5135 14.676L17.5937 14.7052L17.3875 14.6302L8.84688 19.5365L8.83229 19.5229L7.61562 20.0406L7.51875 19.974L8.75208 19.45L8.67188 19.376L7.42188 19.9073L7.325 19.8406L8.59167 19.3021L8.52396 19.2406L8.57917 19.2917L16.9615 14.4771L16.8906 14.451L18.075 13.8375L18.0542 13.75L18.3354 14.9219Z" fill="white"/>
<path d="M14.6052 13.6227L17.6417 12.0487L17.6156 11.9414L14.4688 13.5737L14.6052 13.6227Z" fill="white"/>
<path d="M13.8437 13.3467L17.4979 11.452L17.4719 11.3457L13.7073 13.2978L13.8437 13.3467Z" fill="white"/>
<path d="M12.8812 11.8339L17.0041 9.69635L16.9239 9.61719L12.8344 11.738L12.8812 11.8339Z" fill="white"/>
<path d="M12.6219 11.2975L16.5583 9.2569L16.4781 9.17773L12.576 11.2007L12.6219 11.2975Z" fill="white"/>
<path d="M10.2958 6.46758L12.5489 5.29987L12.4687 5.2207L10.2489 6.37175L10.2958 6.46758Z" fill="white"/>
<path d="M9.52088 4.85859L11.2125 3.98047L11.1323 3.90234L9.474 4.76172L9.52088 4.85859Z" fill="white"/>
<path d="M7.96985 1.63763L8.53964 1.34284L8.45943 1.26367L7.92297 1.5418L7.96985 1.63763Z" fill="white"/>
<path d="M8.09372 0.902344L8.01351 0.824219L7.66455 1.00547L7.71038 1.1013L8.09372 0.902344Z" fill="white"/>
<path d="M7.64896 0.461979L7.56875 0.382812L7.40625 0.468229L7.45208 0.564063L7.64896 0.461979Z" fill="white"/>
<path d="M7.20315 0.0227856L7.18127 0.00195312L7.19377 0.0279942L7.20315 0.0227856Z" fill="white"/>
<path d="M10.1885 20.7643L17.8386 16.3695L18.025 15.8633L9.9198 20.5185L10.1885 20.7643Z" fill="white"/>
<path d="M11.8885 22.3184L11.3052 22.5663L11.4021 22.6329L11.9687 22.3923L11.8885 22.3184Z" fill="white"/>
<path d="M8.58643 20.7056L8.6833 20.7723L9.71663 20.3337L9.63643 20.2598L8.58643 20.7056Z" fill="white"/>
<path d="M46.7886 13.3926C45.7761 13.3926 44.8521 13.5822 44.0167 13.9592C43.1813 14.3374 42.4979 14.8634 41.9677 15.5384C41.5334 14.8311 40.9427 14.2967 40.1959 13.9353C39.449 13.5738 38.5927 13.3926 37.6281 13.3926C36.7438 13.3926 35.9406 13.5457 35.2177 13.8509C34.4948 14.1561 33.8917 14.5978 33.4094 15.177V13.5374H30.5406V26.4103H33.5542V19.878C33.5542 18.6249 33.8552 17.6686 34.4584 17.0092C35.0615 16.3509 35.8761 16.0207 36.9052 16.0207C37.8375 16.0207 38.5521 16.3061 39.0511 16.877C39.549 17.4478 39.7979 18.2957 39.7979 19.4207V26.4113H42.8115V19.879C42.8115 18.6415 43.1167 17.6895 43.7271 17.0228C44.3375 16.3561 45.149 16.0228 46.1615 16.0228C47.0938 16.0228 47.8084 16.3082 48.3073 16.879C48.8052 17.4499 49.0542 18.2978 49.0542 19.4228V26.4134H52.0677V19.0374C52.0677 17.1572 51.5938 15.7467 50.6459 14.8072C49.6969 13.8624 48.4115 13.3926 46.7886 13.3926Z" fill="white"/>
<path d="M57.4427 7.80078C56.8958 7.80078 56.4385 7.9737 56.0687 8.31953C55.6989 8.66536 55.5145 9.09453 55.5145 9.60911C55.5145 10.1237 55.6989 10.5539 56.0687 10.8987C56.4385 11.2445 56.8958 11.4174 57.4427 11.4174C58.0052 11.4174 58.4677 11.2362 58.8291 10.8747C59.1906 10.5133 59.3718 10.0674 59.3718 9.53724C59.3718 9.03932 59.1864 8.62578 58.8177 8.29557C58.4468 7.96536 57.9885 7.80078 57.4427 7.80078Z" fill="white"/>
<path d="M58.9375 13.5371H55.924V26.41H58.9375V13.5371Z" fill="white"/>
<path d="M70.1948 13.3926C69.2469 13.3926 68.3948 13.5457 67.6396 13.8509C66.8844 14.1561 66.2573 14.6061 65.7594 15.2009V13.5374H62.8906V26.4103H65.9042V19.902C65.9042 18.6488 66.225 17.6884 66.8687 17.0217C67.5115 16.3551 68.3875 16.0217 69.4958 16.0217C70.476 16.0217 71.2312 16.3072 71.7614 16.878C72.2917 17.4488 72.5573 18.2967 72.5573 19.4217V26.4124H75.5708V19.0363C75.5708 17.1717 75.0802 15.7665 74.1 14.8176C73.1198 13.8665 71.8177 13.3926 70.1948 13.3926Z" fill="white"/>
<path d="M84.6105 24.0954C84.0323 24.0954 83.5896 23.9309 83.2844 23.6017C82.9792 23.2725 82.8261 22.7944 82.8261 22.1673V16.0444H86.273V13.634H82.8261V10.6934H79.8126V13.634H77.6907V16.0444H79.8126V22.2402C79.8126 23.6548 80.198 24.7319 80.9698 25.4704C81.7407 26.21 82.8344 26.5798 84.248 26.5798C84.8105 26.5798 85.3448 26.5079 85.8511 26.3632C86.3573 26.2184 86.7876 26.0017 87.1407 25.7121L86.2969 23.5663C85.848 23.9184 85.2855 24.0954 84.6105 24.0954Z" fill="white"/>
<path d="M98.1459 14.2238C97.1573 13.6697 96.0365 13.3926 94.7834 13.3926C93.5136 13.3926 92.373 13.6738 91.3605 14.2363C90.348 14.7988 89.5563 15.5822 88.9865 16.5863C88.4157 17.5905 88.1302 18.7197 88.1302 19.9728C88.1302 21.2426 88.423 22.3801 89.0105 23.3832C89.5969 24.3874 90.4282 25.1717 91.5053 25.7332C92.5813 26.2957 93.8271 26.577 95.2417 26.577C96.3511 26.577 97.3469 26.3999 98.2313 26.0467C99.1146 25.6936 99.8459 25.1707 100.425 24.4801L98.8105 22.6238C97.8948 23.5561 96.7292 24.0217 95.3146 24.0217C94.2052 24.0217 93.2782 23.7447 92.5302 23.1905C91.7834 22.6363 91.3209 21.8853 91.1438 20.9363H101.244C101.276 20.5509 101.292 20.253 101.292 20.0447C101.292 18.727 101.015 17.5655 100.46 16.5613C99.9063 15.5582 99.1344 14.779 98.1459 14.2238ZM91.1188 18.9374C91.2636 17.9895 91.6688 17.2301 92.3365 16.6592C93.0032 16.0895 93.8188 15.804 94.7834 15.804C95.7636 15.804 96.5834 16.0936 97.2417 16.6717C97.9 17.2499 98.2938 18.0061 98.423 18.9374H91.1188Z" fill="white"/>
<path d="M113.779 15.1286C113.281 14.5505 112.678 14.1161 111.971 13.8266C111.264 13.537 110.484 13.3922 109.632 13.3922C108.395 13.3922 107.282 13.6651 106.294 14.212C105.305 14.7589 104.53 15.5297 103.968 16.5266C103.405 17.5234 103.124 18.6724 103.124 19.9734C103.124 21.2745 103.405 22.4286 103.968 23.4328C104.53 24.437 105.305 25.213 106.294 25.7589C107.282 26.3057 108.395 26.5786 109.632 26.5786C110.516 26.5786 111.324 26.4255 112.055 26.1203C112.787 25.8151 113.401 25.3568 113.899 24.7464V26.4099H116.792V8.52344H113.778V15.1286H113.779ZM113.321 22.0953C112.983 22.7057 112.525 23.1766 111.947 23.5057C111.369 23.8349 110.718 23.9995 109.995 23.9995C109.272 23.9995 108.621 23.8349 108.042 23.5057C107.464 23.1766 107.005 22.7068 106.668 22.0953C106.33 21.4849 106.162 20.7776 106.162 19.9745C106.162 19.1714 106.33 18.4641 106.668 17.8526C107.005 17.2422 107.464 16.7724 108.042 16.4422C108.62 16.113 109.271 15.9484 109.995 15.9484C110.718 15.9484 111.369 16.113 111.947 16.4422C112.525 16.7714 112.983 17.2422 113.321 17.8526C113.658 18.463 113.827 19.1703 113.827 19.9745C113.827 20.7776 113.658 21.4849 113.321 22.0953Z" fill="white"/>
<path d="M130.653 15.2488C130.138 14.6217 129.5 14.1561 128.736 13.8509C127.973 13.5457 127.125 13.3926 126.194 13.3926C124.972 13.3926 123.868 13.6499 122.879 14.1645C121.891 14.679 121.111 15.4061 120.541 16.3457C119.97 17.2863 119.685 18.3665 119.685 19.5884C119.685 20.8103 119.971 21.8947 120.541 22.8426C121.111 23.7915 121.891 24.5259 122.879 25.0478C123.868 25.5707 124.972 25.8311 126.194 25.8311C127.077 25.8311 127.889 25.6863 128.628 25.3967C129.367 25.1072 129.994 24.6822 130.508 24.1197V24.7947C130.508 26.1124 130.179 27.0926 129.52 27.7353C128.86 28.378 127.824 28.6999 126.41 28.6999C125.526 28.6999 124.654 28.5592 123.795 28.278C122.934 27.9967 122.224 27.6228 121.661 27.1572L120.311 29.4228C121.034 30.0176 121.951 30.4717 123.059 30.7842C124.169 31.0978 125.342 31.254 126.579 31.254C131.207 31.254 133.522 28.9884 133.522 24.4561V13.5374H130.653V15.2488ZM129.459 22.252C128.728 22.9353 127.792 23.277 126.651 23.277C125.494 23.277 124.55 22.9353 123.819 22.252C123.087 21.5686 122.722 20.6811 122.722 19.5884C122.722 18.5124 123.087 17.6353 123.819 16.9603C124.55 16.2853 125.494 15.9478 126.651 15.9478C127.792 15.9478 128.728 16.2853 129.459 16.9603C130.191 17.6353 130.556 18.5113 130.556 19.5884C130.556 20.6811 130.191 21.5686 129.459 22.252Z" fill="white"/>
<path d="M146.43 14.2238C145.442 13.6697 144.321 13.3926 143.068 13.3926C141.798 13.3926 140.657 13.6738 139.645 14.2363C138.632 14.7988 137.841 15.5822 137.27 16.5863C136.699 17.5905 136.415 18.7197 136.415 19.9728C136.415 21.2426 136.707 22.3801 137.295 23.3832C137.881 24.3874 138.712 25.1717 139.79 25.7332C140.866 26.2957 142.111 26.577 143.526 26.577C144.635 26.577 145.631 26.3999 146.516 26.0467C147.399 25.6936 148.131 25.1707 148.709 24.4801L147.095 22.6238C146.179 23.5561 145.014 24.0217 143.599 24.0217C142.49 24.0217 141.563 23.7447 140.815 23.1905C140.068 22.6363 139.605 21.8853 139.428 20.9363H149.529C149.562 20.5509 149.577 20.253 149.577 20.0447C149.577 18.727 149.3 17.5655 148.746 16.5613C148.19 15.5582 147.419 14.779 146.43 14.2238ZM139.403 18.9374C139.548 17.9895 139.953 17.2301 140.621 16.6592C141.288 16.0895 142.103 15.804 143.068 15.804C144.048 15.804 144.868 16.0936 145.526 16.6717C146.184 17.2499 146.578 18.0061 146.707 18.9374H139.403Z" fill="white"/>
<path d="M172.573 14.803C171.625 13.8624 170.339 13.3926 168.716 13.3926C167.703 13.3926 166.779 13.5822 165.944 13.9592C165.108 14.3374 164.425 14.8634 163.895 15.5384C163.46 14.8311 162.87 14.2967 162.123 13.9353C161.376 13.5738 160.52 13.3926 159.555 13.3926C158.671 13.3926 157.868 13.5457 157.145 13.8509C156.422 14.1561 155.819 14.5978 155.337 15.177V13.5374H152.468V26.4103H155.481V19.878C155.481 18.6249 155.782 17.6686 156.385 17.0092C156.989 16.3509 157.803 16.0207 158.832 16.0207C159.765 16.0207 160.479 16.3061 160.978 16.877C161.476 17.4478 161.725 18.2957 161.725 19.4207V26.4113H164.739V19.879C164.739 18.6415 165.044 17.6895 165.654 17.0228C166.265 16.3561 167.076 16.0228 168.089 16.0228C169.021 16.0228 169.736 16.3082 170.234 16.879C170.732 17.4499 170.981 18.2978 170.981 19.4228V26.4134H173.995V19.0374C173.996 17.153 173.521 15.7426 172.573 14.803Z" fill="white"/>
</svg>
