<svg width="16" height="16" viewBox="0 0 16 16" fill="none" xmlns="http://www.w3.org/2000/svg">
<g clip-path="url(#clip0_1776_25839)">
<path d="M4.89183 12.0274L3.9262 11.0617C3.66058 10.7961 3.56683 10.4117 3.68558 10.0555C3.77933 9.77736 3.90433 9.41486 4.05433 8.99924H0.748077C0.479327 8.99924 0.229327 8.85549 0.0949522 8.62111C-0.0394228 8.38674 -0.0362978 8.09924 0.101202 7.86799L1.74183 5.10236C2.14808 4.41799 2.88245 3.99924 3.6762 3.99924H6.24808C6.32308 3.87424 6.39808 3.75861 6.47308 3.64611C9.03245 -0.128889 12.845 -0.253888 15.12 0.164862C15.4825 0.230487 15.7637 0.514862 15.8325 0.877362C16.2512 3.15549 16.1231 6.96486 12.3512 9.52424C12.2418 9.59924 12.1231 9.67424 11.9981 9.74924V12.3211C11.9981 13.1149 11.5793 13.8524 10.895 14.2555L8.12933 15.8961C7.89808 16.0336 7.61058 16.0367 7.3762 15.9024C7.14183 15.768 6.99808 15.5211 6.99808 15.2492V11.8992C6.55745 12.0524 6.17308 12.1774 5.88245 12.2711C5.53245 12.3836 5.1512 12.2867 4.8887 12.0274H4.89183ZM11.9981 5.24924C12.6887 5.24924 13.2481 4.68986 13.2481 3.99924C13.2481 3.30861 12.6887 2.74924 11.9981 2.74924C11.3075 2.74924 10.7481 3.30861 10.7481 3.99924C10.7481 4.68986 11.3075 5.24924 11.9981 5.24924Z" fill="white"/>
</g>
<defs>
<clipPath id="clip0_1776_25839">
<rect width="16" height="16" fill="white"/>
</clipPath>
</defs>
</svg>
